<svg viewBox="0 0 400 400" fill="none" xmlns="http://www.w3.org/2000/svg">
  <defs>
    <!-- Outer circle gradient - teal to darker teal -->
    <linearGradient id="outerGrad" x1="0%" y1="0%" x2="100%" y2="100%">
      <stop offset="0%" style="stop-color:#7DD3C0"/>
      <stop offset="30%" style="stop-color:#4ECDC4"/>
      <stop offset="70%" style="stop-color:#44A08D"/>
      <stop offset="100%" style="stop-color:#2E8B7A"/>
    </linearGradient>
    
    <!-- Plant gradient - various greens -->
    <linearGradient id="plantGrad" x1="0%" y1="0%" x2="100%" y2="100%">
      <stop offset="0%" style="stop-color:#8FD14F"/>
      <stop offset="30%" style="stop-color:#7DD3C0"/>
      <stop offset="70%" style="stop-color:#4ECDC4"/>
      <stop offset="100%" style="stop-color:#44A08D"/>
    </linearGradient>
    
    <!-- Darker plant parts -->
    <linearGradient id="darkPlantGrad" x1="0%" y1="0%" x2="100%" y2="100%">
      <stop offset="0%" style="stop-color:#4ECDC4"/>
      <stop offset="50%" style="stop-color:#44A08D"/>
      <stop offset="100%" style="stop-color:#2E8B7A"/>
    </linearGradient>
  </defs>
  
  <!-- Outer circular ring with gradient -->
  <circle cx="200" cy="200" r="180" fill="url(#outerGrad)" opacity="0.95"/>
  
  <!-- Inner white/cream circle -->
  <circle cx="200" cy="200" r="120" fill="#F5F5DC" opacity="0.98"/>
  
  <!-- Plant stem - main vertical line -->
  <path d="M200 280 Q200 240 200 180" stroke="url(#darkPlantGrad)" stroke-width="8" fill="none" stroke-linecap="round"/>
  
  <!-- Bottom leaves (largest) -->
  <ellipse cx="170" cy="250" rx="25" ry="35" fill="url(#plantGrad)" transform="rotate(-35 170 250)"/>
  <ellipse cx="230" cy="250" rx="25" ry="35" fill="url(#plantGrad)" transform="rotate(35 230 250)"/>
  
  <!-- Middle leaves -->
  <ellipse cx="160" cy="210" rx="22" ry="32" fill="url(#plantGrad)" transform="rotate(-45 160 210)"/>
  <ellipse cx="240" cy="210" rx="22" ry="32" fill="url(#plantGrad)" transform="rotate(45 240 210)"/>
  
  <!-- Upper middle leaves -->
  <ellipse cx="175" cy="180" rx="18" ry="28" fill="url(#darkPlantGrad)" transform="rotate(-25 175 180)"/>
  <ellipse cx="225" cy="180" rx="18" ry="28" fill="url(#darkPlantGrad)" transform="rotate(25 225 180)"/>
  
  <!-- Top leaves (smallest) -->
  <ellipse cx="185" cy="155" rx="15" ry="22" fill="url(#darkPlantGrad)" transform="rotate(-15 185 155)"/>
  <ellipse cx="215" cy="155" rx="15" ry="22" fill="url(#darkPlantGrad)" transform="rotate(15 215 155)"/>
  
  <!-- Top center leaf -->
  <ellipse cx="200" cy="140" rx="12" ry="20" fill="url(#plantGrad)" transform="rotate(0 200 140)"/>
</svg> 